<?xml version="1.0" encoding="UTF-8"?>
<svg id="Capa_1" data-name="Capa 1" xmlns="http://www.w3.org/2000/svg" viewBox="0 0 800 663.16">
  <defs>
    <style>
      .cls-1 {
        fill: #fff;
        stroke-width: 0px;
      }
    </style>
  </defs>
  <path class="cls-1" d="m595,443.58l97.9-383.32h107.1V0h-153.9l-23.08,90.36L0,89.92l66.24,353.66h528.77s0,0,0,0Zm12.64-292.97l-59.44,232.72H116.25l-43.66-233.1,535.04.38Z"/>
  <path class="cls-1" d="m512.52,663.16c53.13,0,96.35-43.23,96.35-96.36s-43.22-96.35-96.35-96.35H149.5c-53.13,0-96.36,43.22-96.36,96.35s43.22,96.36,96.36,96.36,96.35-43.23,96.35-96.36c0-12.76-2.5-24.94-7.02-36.1h184.36c-4.53,11.16-7.02,23.34-7.02,36.1,0,53.13,43.23,96.36,96.36,96.36Zm-326.92-96.36c0,19.91-16.19,36.1-36.1,36.1s-36.1-16.19-36.1-36.1,16.19-36.1,36.1-36.1c19.91,0,36.1,16.19,36.1,36.1Zm363.03,0c0,19.91-16.19,36.1-36.1,36.1s-36.1-16.19-36.1-36.1,16.19-36.1,36.1-36.1,36.1,16.19,36.1,36.1Z"/>
</svg>