<?xml version="1.0" encoding="UTF-8"?>
<svg id="Layer_1" data-name="Layer 1" xmlns="http://www.w3.org/2000/svg" viewBox="0 0 260.83 122.26">
  <defs>
    <style>
      .cls-1 {
        fill: #f1f8fd;
        stroke-width: 0px;
      }

      .cls-2 {
        fill: none;
        stroke: #f1f8fd;
        stroke-miterlimit: 10;
        stroke-width: 3px;
      }
    </style>
  </defs>
  <g>
    <g>
      <path class="cls-1" d="m48.39,47.21l1.31-.28c1.46-.31,2.98.36,3.67,1.68,1.63,3.11,5.13,4.66,10.49,4.66,2.99,0,5.29-.59,6.9-1.78,1.61-1.19,2.41-2.66,2.41-4.42,0-1.28-.37-2.46-1.1-3.54-.73-1.08-2.29-1.94-4.69-2.55l-8.94-2.33c-3.06-.8-5.32-1.71-6.78-2.72-1.46-1.01-2.63-2.45-3.51-4.3-.88-1.85-1.32-3.82-1.32-5.92,0-4.18,1.55-7.53,4.66-10.05,3.11-2.52,7.08-3.78,11.92-3.78,4.02,0,7.61.88,10.77,2.64,1.49.83,2.72,1.81,3.7,2.96,1.64,1.93.71,4.91-1.75,5.52l-1.44.36c-1.35.33-2.71-.27-3.5-1.42-1.52-2.18-4.06-3.28-7.61-3.28-2.63,0-4.63.55-6.01,1.64-1.38,1.1-2.07,2.49-2.07,4.18,0,2.67,2.17,4.54,6.51,5.62l7.95,1.99c4.82,1.21,8.05,3,9.69,5.36,1.64,2.36,2.47,4.97,2.47,7.83,0,4.59-1.73,8.2-5.19,10.84-3.46,2.64-7.94,3.96-13.44,3.96-4.63,0-8.69-.97-12.17-2.91-2.15-1.2-3.86-2.81-5.11-4.84s-.1-4.6,2.19-5.09Z"/>
      <path class="cls-1" d="m106.32,59.34h-23.6c-1.87,0-3.39-1.52-3.39-3.39V15.98c0-1.87,1.52-3.39,3.39-3.39h23.29c1.87,0,3.39,1.52,3.39,3.39v.17c0,1.87-1.52,3.39-3.39,3.39h-14.86c-1.87,0-3.39,1.52-3.39,3.39v5.89c0,1.87,1.52,3.39,3.39,3.39h10.62c1.87,0,3.39,1.52,3.39,3.39h0c0,1.87-1.52,3.39-3.39,3.39h-10.62c-1.87,0-3.39,1.52-3.39,3.39v6.3c0,1.87,1.52,3.39,3.39,3.39h15.17c1.87,0,3.39,1.52,3.39,3.39v.48c0,1.87-1.52,3.39-3.39,3.39Z"/>
      <path class="cls-1" d="m140.41,59.34h-1.57c-1.41,0-2.67-.87-3.17-2.19l-5.6-14.83c-.5-1.32-1.76-2.19-3.17-2.19h-6.12c-1.87,0-3.39,1.52-3.39,3.39v12.43c0,1.87-1.52,3.39-3.39,3.39h-1.64c-1.87,0-3.39-1.52-3.39-3.39V15.98c0-1.87,1.52-3.39,3.39-3.39h16.88c5.64,0,9.78,1.27,12.43,3.82,2.65,2.55,3.97,5.84,3.97,9.88,0,5.01-1.96,8.72-5.87,11.12-1.41.87-2.03,2.61-1.41,4.15l5.21,13.13c.88,2.23-.76,4.64-3.15,4.64Zm-23.02-29.35c0,1.87,1.52,3.39,3.39,3.39h7.09c3.04,0,5.3-.64,6.78-1.92,1.48-1.28,2.23-3.04,2.23-5.27,0-2.05-.73-3.72-2.19-4.98-1.46-1.27-3.51-1.9-6.13-1.9h-7.77c-1.87,0-3.39,1.52-3.39,3.39v7.29Z"/>
      <path class="cls-1" d="m144.02,15.98v39.96c0,1.87,1.52,3.39,3.39,3.39h.94c1.46,0,2.76-.94,3.22-2.32l.7-2.1c.11-.34.17-.71.17-1.07V15.98c0-1.87-1.52-3.39-3.39-3.39h-1.64c-1.87,0-3.39,1.52-3.39,3.39Z"/>
      <path class="cls-1" d="m199.85,48.31V15.98c0-1.87-1.52-3.39-3.39-3.39h-2.09c-1.87,0-3.39,1.52-3.39,3.39v18.43c0,3.84-5.38,4.72-6.6,1.08l-6.91-20.58c-.46-1.38-1.76-2.31-3.21-2.31h-5.49c-1.46,0-2.76.94-3.22,2.32l-13.11,39.48-.16.48c-.73,2.19.91,4.46,3.22,4.46h.05c1.46,0,2.76-.94,3.22-2.33l2.13-6.47c.46-1.39,1.76-2.33,3.22-2.33h13.09c1.46,0,2.75.93,3.21,2.31l2.18,6.5c.46,1.38,1.76,2.31,3.21,2.31h30.55c1.87,0,3.39-1.52,3.39-3.39v-.85c0-1.87-1.52-3.39-3.39-3.39h-13.12c-1.87,0-3.39-1.52-3.39-3.39Zm-34.65-11.29l2.14-6.55c1.02-3.12,5.43-3.12,6.45,0l2.14,6.55c.72,2.19-.92,4.44-3.22,4.44h-4.28c-2.31,0-3.94-2.25-3.22-4.44Z"/>
    </g>
    <g>
      <path class="cls-1" d="m67.28,97.85l1.27-.27c1.47-.31,2.99.36,3.69,1.69,1.63,3.1,5.13,4.65,10.49,4.65,2.99,0,5.29-.59,6.9-1.78,1.61-1.19,2.41-2.66,2.41-4.42,0-1.28-.37-2.46-1.1-3.54-.73-1.08-2.29-1.94-4.69-2.55l-8.94-2.33c-3.06-.8-5.32-1.71-6.78-2.72-1.46-1.01-2.63-2.45-3.51-4.3-.88-1.85-1.32-3.82-1.32-5.92,0-4.18,1.55-7.53,4.66-10.05,3.11-2.52,7.08-3.78,11.92-3.78,4.02,0,7.61.88,10.77,2.64,1.48.82,2.7,1.8,3.68,2.94,1.66,1.93.71,4.94-1.76,5.55l-1.4.35c-1.35.33-2.71-.27-3.5-1.42-1.52-2.18-4.06-3.28-7.61-3.28-2.63,0-4.63.55-6.01,1.64-1.38,1.1-2.07,2.49-2.07,4.18,0,2.67,2.17,4.54,6.51,5.62l7.95,1.99c4.82,1.21,8.05,3,9.69,5.36,1.64,2.36,2.47,4.97,2.47,7.83,0,4.59-1.73,8.2-5.19,10.84-3.46,2.64-7.94,3.96-13.44,3.96-4.63,0-8.69-.97-12.17-2.91-2.14-1.19-3.84-2.8-5.1-4.82s-.1-4.63,2.2-5.12Z"/>
      <path class="cls-1" d="m114.12,109.98h-2.22c-1.88,0-3.41-1.53-3.41-3.41v-32.7c0-1.88-1.53-3.41-3.41-3.41h-5.61c-1.88,0-3.41-1.53-3.41-3.41v-.41c0-1.88,1.53-3.41,3.41-3.41h27.08c1.88,0,3.41,1.53,3.41,3.41v.41c0,1.88-1.53,3.41-3.41,3.41h-5.61c-1.88,0-3.41,1.53-3.41,3.41v32.7c0,1.88-1.53,3.41-3.41,3.41Z"/>
      <path class="cls-1" d="m153.39,109.98h-1.81c-1.47,0-2.77-.94-3.23-2.33l-2.17-6.48c-.47-1.39-1.77-2.33-3.23-2.33h-13.06c-1.47,0-2.78.95-3.24,2.34l-2.12,6.44c-.46,1.4-1.77,2.34-3.24,2.34h0c-2.33,0-3.97-2.28-3.24-4.48l13.25-39.93c.46-1.39,1.77-2.34,3.24-2.34h5.46c1.47,0,2.77.94,3.23,2.33l13.4,39.93c.74,2.21-.9,4.49-3.23,4.49Zm-11.72-22.35l-2.11-6.47c-1.02-3.13-5.46-3.13-6.48,0l-2.11,6.47c-.72,2.2.92,4.47,3.24,4.47h4.23c2.32,0,3.96-2.26,3.24-4.47Z"/>
      <path class="cls-1" d="m185.25,66.64v39.92c0,1.88-1.53,3.41-3.41,3.41h-1.6c-1.88,0-3.41-1.53-3.41-3.41v-32.7c0-1.88-1.53-3.41-3.41-3.41h-3.74c-1.88,0-3.41,1.53-3.41,3.41v32.7c0,1.88-1.53,3.41-3.41,3.41h-2.22c-1.88,0-3.41-1.53-3.41-3.41v-32.7c0-1.88-1.53-3.41-3.41-3.41h-5.61c-1.88,0-3.41-1.53-3.41-3.41v-.4c0-1.88,1.53-3.41,3.41-3.41h33.63c1.88,0,3.41,1.53,3.41,3.41Z"/>
      <path class="cls-1" d="m215.74,94.08l1.01.11c2.12.23,3.52,2.34,2.9,4.38-.9,2.94-2.44,5.46-4.63,7.59-3.12,3.03-7.21,4.54-12.28,4.54-4.27,0-7.73-1.07-10.39-3.22-2.66-2.15-4.71-5.06-6.15-8.73-1.44-3.68-2.16-7.73-2.16-12.16,0-7.12,1.69-12.92,5.07-17.38,3.38-4.46,8.03-6.7,13.94-6.7,4.63,0,8.49,1.43,11.57,4.28,2.25,2.08,3.89,4.83,4.93,8.23.63,2.07-.75,4.2-2.9,4.43l-1.09.12c-1.61.17-3.12-.83-3.6-2.37-1.65-5.27-4.6-7.9-8.84-7.9-3.15,0-5.6,1.47-7.35,4.4s-2.62,7.19-2.62,12.76.94,9.94,2.81,12.82c1.87,2.89,4.35,4.33,7.43,4.33,2.47,0,4.57-.97,6.3-2.91,1.1-1.23,1.9-2.62,2.39-4.15s2-2.64,3.65-2.46Z"/>
    </g>
  </g>
  <ellipse class="cls-2" cx="132.75" cy="61.89" rx="25.46" ry="119.89" transform="translate(39.16 174.57) rotate(-75.28)"/>
  <path class="cls-1" d="m20.73,22.53l1.83,3.71c.4.81,1.17,1.36,2.05,1.49l4.1.6c2.24.33,3.13,3.07,1.51,4.65l-2.96,2.89c-.64.63-.94,1.53-.78,2.41l.7,4.08c.38,2.23-1.96,3.93-3.96,2.88l-3.66-1.93c-.79-.42-1.74-.42-2.54,0l-3.66,1.93c-2,1.05-4.34-.65-3.96-2.88l.7-4.08c.15-.88-.14-1.79-.78-2.41l-2.96-2.89c-1.62-1.58-.73-4.33,1.51-4.65l4.1-.6c.89-.13,1.66-.69,2.05-1.49l1.83-3.71c1-2.03,3.89-2.03,4.89,0Z"/>
  <path class="cls-1" d="m33.42,44.25l1.21,1.51c.44.55,1.12.84,1.83.79l1.93-.14c1.77-.13,2.92,1.82,1.95,3.3l-1.06,1.62c-.39.59-.46,1.33-.19,1.98l.73,1.79c.67,1.64-.83,3.34-2.54,2.87l-1.86-.51c-.68-.18-1.41-.02-1.94.43l-1.47,1.25c-1.35,1.15-3.43.24-3.52-1.53l-.09-1.93c-.03-.7-.41-1.34-1.01-1.71l-1.64-1.02c-1.51-.93-1.29-3.19.37-3.82l1.81-.69c.66-.25,1.15-.81,1.32-1.49l.46-1.88c.42-1.72,2.63-2.21,3.74-.83Z"/>
  <path class="cls-1" d="m251.61,86.86v1.93c0,.7.35,1.36.93,1.76l1.59,1.09c1.46,1,1.13,3.25-.55,3.8l-1.84.6c-.67.22-1.19.75-1.39,1.43l-.55,1.85c-.5,1.7-2.74,2.08-3.78.65l-1.14-1.56c-.41-.57-1.08-.9-1.78-.88l-1.93.05c-1.77.05-2.83-1.96-1.78-3.39l1.14-1.56c.41-.57.52-1.31.29-1.97l-.64-1.82c-.59-1.67.99-3.29,2.68-2.75l1.84.6c.67.22,1.4.09,1.96-.34l1.53-1.18c1.41-1.08,3.44-.08,3.44,1.7Z"/>
</svg>